<svg width="349" height="35" viewBox="0 0 349 35" fill="none" xmlns="http://www.w3.org/2000/svg">
<path d="M3.40376 34.4491C2.65014 34.4491 2.03783 34.2764 1.56682 33.931C1.12721 33.5856 0.8603 33.1303 0.766097 32.5651C0.671895 31.9685 0.781798 31.3091 1.09581 30.5868L13.5305 3.03268C13.9387 2.12206 14.4254 1.47834 14.9906 1.10153C15.5873 0.693322 16.2624 0.489217 17.016 0.489217C17.7382 0.489217 18.3819 0.693322 18.9471 1.10153C19.5437 1.47834 20.0462 2.12206 20.4544 3.03268L32.9362 30.5868C33.2816 31.3091 33.4072 31.9685 33.313 32.5651C33.2188 33.1617 32.9519 33.6327 32.5123 33.9781C32.0727 34.2921 31.4917 34.4491 30.7695 34.4491C29.8903 34.4491 29.1995 34.245 28.6971 33.8368C28.2261 33.3972 27.8021 32.7378 27.4253 31.8586L24.3638 24.7463L26.9072 26.3948H7.03055L9.57401 24.7463L6.55954 31.8586C6.15133 32.7692 5.72742 33.4286 5.28781 33.8368C4.8482 34.245 4.22018 34.4491 3.40376 34.4491ZM16.9218 7.41308L10.3276 23.0978L9.103 21.5905H24.8348L23.6572 23.0978L17.016 7.41308H16.9218ZM50.9825 34.5433C49.0357 34.5433 47.3243 34.0566 45.8485 33.0832C44.4041 32.1098 43.4463 30.8066 42.9753 29.1738L43.4934 27.9963V31.4347C43.4934 32.4081 43.2422 33.1617 42.7398 33.6955C42.2374 34.1979 41.5309 34.4491 40.6203 34.4491C39.6783 34.4491 38.956 34.1979 38.4536 33.6955C37.9512 33.1617 37.7 32.4081 37.7 31.4347V3.45659C37.7 2.48317 37.9512 1.74525 38.4536 1.24284C38.956 0.740424 39.6783 0.489217 40.6203 0.489217C41.5623 0.489217 42.2845 0.740424 42.7869 1.24284C43.3207 1.74525 43.5877 2.48317 43.5877 3.45659V15.7029H43.0224C43.5248 14.1642 44.4983 12.9239 45.9427 11.9819C47.3871 11.0399 49.0671 10.5689 50.9825 10.5689C53.0236 10.5689 54.7977 11.0556 56.305 12.029C57.8122 13.0024 58.9897 14.3841 59.8375 16.1739C60.6854 17.9323 61.1093 20.0519 61.1093 22.5325C61.1093 24.9818 60.6854 27.1171 59.8375 28.9383C58.9897 30.7281 57.7965 32.1098 56.2579 33.0832C54.7506 34.0566 52.9922 34.5433 50.9825 34.5433ZM49.334 30.0687C50.4958 30.0687 51.5163 29.7861 52.3956 29.2209C53.2748 28.6557 53.9499 27.8236 54.4209 26.7246C54.9233 25.5941 55.1745 24.1968 55.1745 22.5325C55.1745 20.0205 54.6407 18.1521 53.5731 16.9275C52.5055 15.6715 51.0924 15.0435 49.334 15.0435C48.1722 15.0435 47.1516 15.3261 46.2724 15.8913C45.3932 16.4251 44.7024 17.2572 44.2 18.3876C43.729 19.4867 43.4934 20.8683 43.4934 22.5325C43.4934 25.0132 44.0273 26.8973 45.0949 28.1847C46.1625 29.4407 47.5755 30.0687 49.334 30.0687ZM76.5871 34.5433C74.2007 34.5433 72.1282 34.0566 70.3698 33.0832C68.6114 32.1098 67.2454 30.7281 66.272 28.9383C65.2986 27.1171 64.8119 24.9818 64.8119 22.5325C64.8119 20.6799 65.0788 19.0314 65.6126 17.5869C66.1778 16.1111 66.9785 14.8551 68.0147 13.8188C69.051 12.7512 70.2913 11.9505 71.7357 11.4167C73.1802 10.8515 74.7973 10.5689 76.5871 10.5689C78.9736 10.5689 81.0461 11.0556 82.8045 12.029C84.5629 13.0024 85.9289 14.3841 86.9023 16.1739C87.8757 17.9637 88.3624 20.0833 88.3624 22.5325C88.3624 24.3852 88.0798 26.0494 87.5146 27.5253C86.9808 29.0011 86.1958 30.2728 85.1596 31.3405C84.1233 32.3767 82.883 33.1774 81.4386 33.7426C79.9941 34.2764 78.377 34.5433 76.5871 34.5433ZM76.5871 30.0687C77.749 30.0687 78.7695 29.7861 79.6487 29.2209C80.5279 28.6557 81.2031 27.8236 81.6741 26.7246C82.1765 25.5941 82.4277 24.1968 82.4277 22.5325C82.4277 20.0205 81.8939 18.1521 80.8262 16.9275C79.7586 15.6715 78.3456 15.0435 76.5871 15.0435C75.4253 15.0435 74.4048 15.3261 73.5256 15.8913C72.6463 16.4251 71.9555 17.2572 71.4531 18.3876C70.9821 19.4867 70.7466 20.8683 70.7466 22.5325C70.7466 25.0132 71.2804 26.8973 72.348 28.1847C73.4157 29.4407 74.8287 30.0687 76.5871 30.0687ZM101.7 34.5433C99.7847 34.5433 98.199 34.1979 96.9429 33.5071C95.6869 32.7849 94.7449 31.7173 94.1169 30.3042C93.5202 28.8912 93.2219 27.1328 93.2219 25.0289V13.6304C93.2219 12.6256 93.4731 11.8877 93.9756 11.4167C94.478 10.9143 95.2002 10.6631 96.1422 10.6631C97.0842 10.6631 97.8064 10.9143 98.3089 11.4167C98.8427 11.8877 99.1096 12.6256 99.1096 13.6304V25.1231C99.1096 26.756 99.4393 27.9649 100.099 28.7499C100.758 29.5349 101.81 29.9274 103.254 29.9274C104.825 29.9274 106.112 29.3936 107.117 28.326C108.122 27.227 108.624 25.7825 108.624 23.9927V13.6304C108.624 12.6256 108.875 11.8877 109.378 11.4167C109.88 10.9143 110.602 10.6631 111.544 10.6631C112.486 10.6631 113.209 10.9143 113.711 11.4167C114.245 11.8877 114.512 12.6256 114.512 13.6304V31.4347C114.512 33.4443 113.554 34.4491 111.638 34.4491C110.728 34.4491 110.021 34.1979 109.519 33.6955C109.017 33.1617 108.765 32.4081 108.765 31.4347V27.855L109.425 29.268C108.765 30.9637 107.76 32.2668 106.41 33.1774C105.091 34.088 103.521 34.5433 101.7 34.5433ZM131.332 34.5433C129.29 34.5433 127.579 34.1979 126.198 33.5071C124.847 32.8163 123.842 31.8115 123.183 30.4926C122.524 29.1424 122.194 27.4782 122.194 25.4999V15.4674H119.745C118.991 15.4674 118.41 15.279 118.002 14.9022C117.594 14.494 117.39 13.9444 117.39 13.2536C117.39 12.5314 117.594 11.9819 118.002 11.6051C118.41 11.2283 118.991 11.0399 119.745 11.0399H122.194V6.75367C122.194 5.78025 122.445 5.04233 122.948 4.53992C123.481 4.0375 124.219 3.7863 125.161 3.7863C126.103 3.7863 126.826 4.0375 127.328 4.53992C127.83 5.04233 128.082 5.78025 128.082 6.75367V11.0399H133.074C133.828 11.0399 134.409 11.2283 134.817 11.6051C135.225 11.9819 135.429 12.5314 135.429 13.2536C135.429 13.9444 135.225 14.494 134.817 14.9022C134.409 15.279 133.828 15.4674 133.074 15.4674H128.082V25.1702C128.082 26.6774 128.411 27.8079 129.071 28.5615C129.73 29.3151 130.798 29.6919 132.274 29.6919C132.807 29.6919 133.278 29.6448 133.687 29.5506C134.095 29.4564 134.456 29.3936 134.77 29.3622C135.147 29.3308 135.461 29.4564 135.712 29.739C135.963 29.9902 136.089 30.524 136.089 31.3405C136.089 31.9685 135.979 32.5337 135.759 33.0361C135.571 33.5071 135.21 33.8368 134.676 34.0252C134.268 34.1508 133.734 34.2607 133.074 34.3549C132.415 34.4805 131.834 34.5433 131.332 34.5433ZM155.602 34.4491C154.628 34.4491 153.859 34.1822 153.294 33.6484C152.76 33.0832 152.493 32.2825 152.493 31.2463V4.0689C152.493 3.03268 152.76 2.24766 153.294 1.71385C153.859 1.14863 154.659 0.866027 155.696 0.866027H172.134C172.95 0.866027 173.563 1.07013 173.971 1.47834C174.379 1.88655 174.583 2.46747 174.583 3.22108C174.583 4.0061 174.379 4.61842 173.971 5.05803C173.563 5.46624 172.95 5.67034 172.134 5.67034H158.522V15.0435H171.145C171.93 15.0435 172.527 15.2476 172.935 15.6558C173.374 16.064 173.594 16.6449 173.594 17.3985C173.594 18.1835 173.374 18.7959 172.935 19.2355C172.527 19.6437 171.93 19.8478 171.145 19.8478H158.522V31.2463C158.522 33.3815 157.548 34.4491 155.602 34.4491ZM185.181 34.5433C183.516 34.5433 182.025 34.2293 180.706 33.6013C179.419 32.9419 178.398 32.0627 177.644 30.9637C176.922 29.8646 176.561 28.6243 176.561 27.2427C176.561 25.547 177.001 24.2125 177.88 23.2391C178.759 22.2342 180.188 21.512 182.166 21.0724C184.144 20.6328 186.798 20.413 190.126 20.413H192.481V23.8043H190.173C188.227 23.8043 186.672 23.8985 185.51 24.0869C184.349 24.2753 183.516 24.605 183.014 25.076C182.543 25.5156 182.307 26.1436 182.307 26.9601C182.307 27.9963 182.669 28.8441 183.391 29.5035C184.113 30.1629 185.118 30.4926 186.405 30.4926C187.441 30.4926 188.352 30.2571 189.137 29.7861C189.954 29.2837 190.597 28.6086 191.068 27.7608C191.539 26.913 191.775 25.9395 191.775 24.8405V19.4239C191.775 17.8538 191.429 16.7234 190.739 16.0326C190.048 15.3418 188.886 14.9964 187.253 14.9964C186.342 14.9964 185.353 15.1063 184.286 15.3261C183.249 15.5459 182.15 15.9227 180.989 16.4565C180.392 16.7391 179.858 16.8176 179.387 16.692C178.948 16.5664 178.602 16.3152 178.351 15.9384C178.1 15.5302 177.974 15.0906 177.974 14.6196C177.974 14.1485 178.1 13.6932 178.351 13.2536C178.602 12.7826 179.026 12.4372 179.623 12.2174C181.067 11.6208 182.449 11.1969 183.768 10.9457C185.118 10.6945 186.342 10.5689 187.441 10.5689C189.702 10.5689 191.555 10.9143 192.999 11.6051C194.475 12.2959 195.574 13.3478 196.297 14.7609C197.019 16.1425 197.38 17.9323 197.38 20.1304V31.4347C197.38 32.4081 197.144 33.1617 196.673 33.6955C196.202 34.1979 195.527 34.4491 194.648 34.4491C193.769 34.4491 193.078 34.1979 192.576 33.6955C192.105 33.1617 191.869 32.4081 191.869 31.4347V29.1738H192.246C192.026 30.2728 191.586 31.2306 190.927 32.047C190.299 32.832 189.498 33.4443 188.525 33.8839C187.551 34.3235 186.437 34.5433 185.181 34.5433ZM214.142 34.5433C211.724 34.5433 209.62 34.0566 207.83 33.0832C206.041 32.0784 204.659 30.6653 203.685 28.8441C202.712 27.0229 202.225 24.8876 202.225 22.4383C202.225 20.5857 202.492 18.9372 203.026 17.4927C203.591 16.0169 204.392 14.7766 205.428 13.7717C206.464 12.7355 207.72 11.9505 209.196 11.4167C210.672 10.8515 212.321 10.5689 214.142 10.5689C215.178 10.5689 216.293 10.7102 217.486 10.9928C218.711 11.2754 219.857 11.7464 220.925 12.4058C221.427 12.7198 221.757 13.0966 221.914 13.5362C222.071 13.9758 222.102 14.4312 222.008 14.9022C221.914 15.3418 221.71 15.7343 221.396 16.0797C221.113 16.3937 220.752 16.5978 220.312 16.692C219.873 16.7548 219.386 16.6449 218.852 16.3623C218.161 15.9541 217.455 15.6558 216.733 15.4674C216.01 15.2476 215.319 15.1377 214.66 15.1377C213.624 15.1377 212.713 15.3104 211.928 15.6558C211.143 15.9698 210.468 16.4408 209.903 17.0688C209.369 17.6654 208.961 18.4191 208.678 19.3297C208.396 20.2403 208.254 21.2922 208.254 22.4854C208.254 24.8091 208.804 26.646 209.903 27.9963C211.033 29.3151 212.619 29.9745 214.66 29.9745C215.319 29.9745 215.995 29.8803 216.685 29.6919C217.408 29.5035 218.13 29.2052 218.852 28.797C219.386 28.5144 219.857 28.4202 220.265 28.5144C220.705 28.6086 221.066 28.8284 221.348 29.1738C221.631 29.4878 221.804 29.8803 221.867 30.3513C221.929 30.7909 221.867 31.2306 221.678 31.6702C221.521 32.1098 221.207 32.4709 220.736 32.7535C219.7 33.3815 218.601 33.8368 217.439 34.1194C216.277 34.402 215.178 34.5433 214.142 34.5433ZM236.746 34.5433C234.14 34.5433 231.895 34.0566 230.011 33.0832C228.127 32.1098 226.667 30.7281 225.631 28.9383C224.626 27.1485 224.123 25.0289 224.123 22.5796C224.123 20.1932 224.61 18.105 225.583 16.3152C226.588 14.5254 227.954 13.128 229.681 12.1232C231.44 11.087 233.434 10.5689 235.663 10.5689C237.296 10.5689 238.756 10.8358 240.044 11.3696C241.362 11.9034 242.477 12.6727 243.388 13.6775C244.33 14.6824 245.036 15.907 245.507 17.3514C246.01 18.7645 246.261 20.3659 246.261 22.1557C246.261 22.721 246.057 23.1606 245.649 23.4746C245.272 23.7572 244.722 23.8985 244 23.8985H228.881V20.5072H242.116L241.362 21.2137C241.362 19.7693 241.143 18.5604 240.703 17.5869C240.295 16.6135 239.682 15.8756 238.866 15.3732C238.081 14.8394 237.092 14.5725 235.899 14.5725C234.58 14.5725 233.449 14.8865 232.507 15.5145C231.597 16.1111 230.89 16.9746 230.388 18.105C229.917 19.2041 229.681 20.5229 229.681 22.0615V22.3912C229.681 24.9661 230.278 26.8973 231.471 28.1847C232.696 29.4407 234.486 30.0687 236.841 30.0687C237.657 30.0687 238.568 29.9745 239.573 29.7861C240.609 29.5663 241.582 29.2052 242.493 28.7028C243.152 28.326 243.733 28.169 244.236 28.2318C244.738 28.2632 245.13 28.4359 245.413 28.7499C245.727 29.0639 245.915 29.4564 245.978 29.9274C246.041 30.367 245.947 30.8223 245.696 31.2934C245.476 31.7644 245.083 32.1726 244.518 32.518C243.419 33.2088 242.147 33.7269 240.703 34.0723C239.29 34.3863 237.971 34.5433 236.746 34.5433ZM267.079 34.5433C263.625 34.5433 260.658 33.8525 258.177 32.4709C255.728 31.0579 253.844 29.0796 252.525 26.5361C251.206 23.9613 250.547 20.9311 250.547 17.4456C250.547 14.8394 250.924 12.5 251.677 10.4276C252.431 8.32371 253.514 6.53386 254.927 5.05803C256.34 3.55079 258.067 2.40466 260.108 1.61965C262.181 0.803226 264.504 0.395016 267.079 0.395016C268.806 0.395016 270.502 0.614821 272.166 1.05443C273.83 1.49404 275.291 2.12206 276.547 2.93848C277.206 3.34669 277.646 3.8491 277.865 4.44571C278.085 5.01093 278.132 5.57614 278.007 6.14135C277.881 6.67517 277.614 7.13048 277.206 7.50729C276.829 7.8841 276.342 8.1039 275.746 8.1667C275.181 8.1981 274.553 7.994 273.862 7.55439C272.888 6.92637 271.836 6.47106 270.706 6.18846C269.576 5.90585 268.429 5.76455 267.268 5.76455C265.038 5.76455 263.154 6.21986 261.615 7.13048C260.077 8.0411 258.915 9.35993 258.13 11.087C257.345 12.814 256.952 14.9336 256.952 17.4456C256.952 19.9263 257.345 22.0458 258.13 23.8043C258.915 25.5627 260.077 26.8973 261.615 27.8079C263.154 28.7185 265.038 29.1738 267.268 29.1738C268.461 29.1738 269.638 29.0325 270.8 28.7499C271.962 28.4359 273.061 27.9649 274.097 27.3369C274.788 26.9287 275.4 26.756 275.934 26.8188C276.499 26.8502 276.97 27.0386 277.347 27.384C277.724 27.7294 277.975 28.169 278.101 28.7028C278.226 29.2052 278.195 29.739 278.007 30.3042C277.818 30.838 277.441 31.3091 276.876 31.7173C275.62 32.6279 274.113 33.3344 272.355 33.8368C270.627 34.3078 268.869 34.5433 267.079 34.5433ZM289.976 34.5433C288.311 34.5433 286.82 34.2293 285.501 33.6013C284.213 32.9419 283.193 32.0627 282.439 30.9637C281.717 29.8646 281.356 28.6243 281.356 27.2427C281.356 25.547 281.796 24.2125 282.675 23.2391C283.554 22.2342 284.983 21.512 286.961 21.0724C288.939 20.6328 291.593 20.413 294.921 20.413H297.276V23.8043H294.968C293.021 23.8043 291.467 23.8985 290.305 24.0869C289.143 24.2753 288.311 24.605 287.809 25.076C287.338 25.5156 287.102 26.1436 287.102 26.9601C287.102 27.9963 287.463 28.8441 288.186 29.5035C288.908 30.1629 289.913 30.4926 291.2 30.4926C292.236 30.4926 293.147 30.2571 293.932 29.7861C294.748 29.2837 295.392 28.6086 295.863 27.7608C296.334 26.913 296.57 25.9395 296.57 24.8405V19.4239C296.57 17.8538 296.224 16.7234 295.533 16.0326C294.843 15.3418 293.681 14.9964 292.048 14.9964C291.137 14.9964 290.148 15.1063 289.081 15.3261C288.044 15.5459 286.945 15.9227 285.784 16.4565C285.187 16.7391 284.653 16.8176 284.182 16.692C283.742 16.5664 283.397 16.3152 283.146 15.9384C282.895 15.5302 282.769 15.0906 282.769 14.6196C282.769 14.1485 282.895 13.6932 283.146 13.2536C283.397 12.7826 283.821 12.4372 284.418 12.2174C285.862 11.6208 287.244 11.1969 288.562 10.9457C289.913 10.6945 291.137 10.5689 292.236 10.5689C294.497 10.5689 296.35 10.9143 297.794 11.6051C299.27 12.2959 300.369 13.3478 301.091 14.7609C301.814 16.1425 302.175 17.9323 302.175 20.1304V31.4347C302.175 32.4081 301.939 33.1617 301.468 33.6955C300.997 34.1979 300.322 34.4491 299.443 34.4491C298.564 34.4491 297.873 34.1979 297.37 33.6955C296.899 33.1617 296.664 32.4081 296.664 31.4347V29.1738H297.041C296.821 30.2728 296.381 31.2306 295.722 32.047C295.094 32.832 294.293 33.4443 293.32 33.8839C292.346 34.3235 291.232 34.5433 289.976 34.5433ZM311.306 34.4491C310.333 34.4491 309.579 34.1979 309.046 33.6955C308.543 33.1617 308.292 32.4081 308.292 31.4347V13.6304C308.292 12.657 308.543 11.9191 309.046 11.4167C309.548 10.9143 310.254 10.6631 311.165 10.6631C312.076 10.6631 312.782 10.9143 313.285 11.4167C313.787 11.9191 314.038 12.657 314.038 13.6304V16.5978H313.567C314.007 14.7138 314.87 13.285 316.158 12.3116C317.445 11.3382 319.157 10.7573 321.292 10.5689C321.951 10.5061 322.469 10.6788 322.846 11.087C323.254 11.4638 323.49 12.0604 323.553 12.8768C323.616 13.6618 323.427 14.3056 322.988 14.808C322.579 15.279 321.951 15.5616 321.103 15.6558L320.067 15.75C318.152 15.9384 316.707 16.535 315.734 17.5398C314.761 18.5133 314.274 19.8949 314.274 21.6847V31.4347C314.274 32.4081 314.023 33.1617 313.52 33.6955C313.018 34.1979 312.28 34.4491 311.306 34.4491ZM335.365 34.5433C333.356 34.5433 331.581 34.0566 330.043 33.0832C328.536 32.1098 327.358 30.7281 326.51 28.9383C325.662 27.1171 325.238 24.9818 325.238 22.5325C325.238 20.0519 325.662 17.9323 326.51 16.1739C327.358 14.3841 328.536 13.0024 330.043 12.029C331.581 11.0556 333.356 10.5689 335.365 10.5689C337.281 10.5689 338.945 11.0399 340.358 11.9819C341.802 12.9239 342.776 14.1642 343.278 15.7029H342.76V3.45659C342.76 2.48317 343.011 1.74525 343.514 1.24284C344.016 0.740424 344.738 0.489217 345.68 0.489217C346.622 0.489217 347.345 0.740424 347.847 1.24284C348.381 1.74525 348.648 2.48317 348.648 3.45659V31.4347C348.648 32.4081 348.396 33.1617 347.894 33.6955C347.392 34.1979 346.669 34.4491 345.727 34.4491C344.785 34.4491 344.063 34.1979 343.561 33.6955C343.058 33.1617 342.807 32.4081 342.807 31.4347V27.7608L343.325 29.1738C342.854 30.8066 341.897 32.1098 340.452 33.0832C339.008 34.0566 337.312 34.5433 335.365 34.5433ZM337.014 30.0687C338.176 30.0687 339.196 29.7861 340.075 29.2209C340.954 28.6557 341.63 27.8236 342.101 26.7246C342.603 25.5941 342.854 24.1968 342.854 22.5325C342.854 20.0205 342.32 18.1521 341.253 16.9275C340.185 15.6715 338.772 15.0435 337.014 15.0435C335.852 15.0435 334.831 15.3261 333.952 15.8913C333.073 16.4251 332.382 17.2572 331.88 18.3876C331.409 19.4867 331.173 20.8683 331.173 22.5325C331.173 25.0132 331.707 26.8973 332.775 28.1847C333.842 29.4407 335.255 30.0687 337.014 30.0687Z" fill="#666669"/>
</svg>
