<svg width="108" height="31" viewBox="0 0 108 31" fill="none" xmlns="http://www.w3.org/2000/svg">
<path d="M1.584 24V7.2H12.144V10.08H4.752V14.136H11.568V17.016H4.752V24H1.584ZM18.0088 24.336C17.1608 24.336 16.4008 24.192 15.7288 23.904C15.0568 23.6 14.5208 23.168 14.1208 22.608C13.7368 22.032 13.5448 21.336 13.5448 20.52C13.5448 19.704 13.7368 19.024 14.1208 18.48C14.5208 17.92 15.0648 17.504 15.7528 17.232C16.4568 16.944 17.2568 16.8 18.1528 16.8H21.4168V16.128C21.4168 15.568 21.2408 15.112 20.8888 14.76C20.5368 14.392 19.9768 14.208 19.2088 14.208C18.4568 14.208 17.8968 14.384 17.5288 14.736C17.1608 15.072 16.9208 15.512 16.8088 16.056L14.0248 15.12C14.2168 14.512 14.5208 13.96 14.9368 13.464C15.3688 12.952 15.9368 12.544 16.6408 12.24C17.3608 11.92 18.2328 11.76 19.2568 11.76C20.8248 11.76 22.0648 12.152 22.9768 12.936C23.8888 13.72 24.3448 14.856 24.3448 16.344V20.784C24.3448 21.264 24.5688 21.504 25.0168 21.504H25.9768V24H23.9608C23.3688 24 22.8808 23.856 22.4968 23.568C22.1128 23.28 21.9208 22.896 21.9208 22.416V22.392H21.4648C21.4008 22.584 21.2568 22.84 21.0328 23.16C20.8088 23.464 20.4568 23.736 19.9768 23.976C19.4968 24.216 18.8408 24.336 18.0088 24.336ZM18.5368 21.888C19.3848 21.888 20.0728 21.656 20.6008 21.192C21.1448 20.712 21.4168 20.08 21.4168 19.296V19.056H18.3688C17.8088 19.056 17.3688 19.176 17.0488 19.416C16.7288 19.656 16.5688 19.992 16.5688 20.424C16.5688 20.856 16.7368 21.208 17.0728 21.48C17.4088 21.752 17.8968 21.888 18.5368 21.888ZM33.5454 24.336C32.3934 24.336 31.3454 24.096 30.4014 23.616C29.4734 23.136 28.7374 22.44 28.1934 21.528C27.6494 20.616 27.3774 19.512 27.3774 18.216V17.88C27.3774 16.584 27.6494 15.48 28.1934 14.568C28.7374 13.656 29.4734 12.96 30.4014 12.48C31.3454 12 32.3934 11.76 33.5454 11.76C34.6814 11.76 35.6574 11.96 36.4734 12.36C37.2894 12.76 37.9454 13.312 38.4414 14.016C38.9534 14.704 39.2894 15.488 39.4494 16.368L36.5214 16.992C36.4574 16.512 36.3134 16.08 36.0894 15.696C35.8654 15.312 35.5454 15.008 35.1294 14.784C34.7294 14.56 34.2254 14.448 33.6174 14.448C33.0094 14.448 32.4574 14.584 31.9614 14.856C31.4814 15.112 31.0974 15.504 30.8094 16.032C30.5374 16.544 30.4014 17.176 30.4014 17.928V18.168C30.4014 18.92 30.5374 19.56 30.8094 20.088C31.0974 20.6 31.4814 20.992 31.9614 21.264C32.4574 21.52 33.0094 21.648 33.6174 21.648C34.5294 21.648 35.2174 21.416 35.6814 20.952C36.1614 20.472 36.4654 19.848 36.5934 19.08L39.5214 19.776C39.3134 20.624 38.9534 21.4 38.4414 22.104C37.9454 22.792 37.2894 23.336 36.4734 23.736C35.6574 24.136 34.6814 24.336 33.5454 24.336ZM47.4399 24.336C46.2559 24.336 45.2079 24.088 44.2959 23.592C43.3999 23.08 42.6959 22.368 42.1839 21.456C41.6879 20.528 41.4399 19.44 41.4399 18.192V17.904C41.4399 16.656 41.6879 15.576 42.1839 14.664C42.6799 13.736 43.3759 13.024 44.2719 12.528C45.1679 12.016 46.2079 11.76 47.3919 11.76C48.5599 11.76 49.5759 12.024 50.4399 12.552C51.3039 13.064 51.9759 13.784 52.4559 14.712C52.9359 15.624 53.1759 16.688 53.1759 17.904V18.936H44.5119C44.5439 19.752 44.8479 20.416 45.4239 20.928C45.9999 21.44 46.7039 21.696 47.5359 21.696C48.3839 21.696 49.0079 21.512 49.4079 21.144C49.8079 20.776 50.1119 20.368 50.3199 19.92L52.7919 21.216C52.5679 21.632 52.2399 22.088 51.8079 22.584C51.3919 23.064 50.8319 23.48 50.1279 23.832C49.4239 24.168 48.5279 24.336 47.4399 24.336ZM44.5359 16.68H50.1039C50.0399 15.992 49.7599 15.44 49.2639 15.024C48.7839 14.608 48.1519 14.4 47.3679 14.4C46.5519 14.4 45.9039 14.608 45.4239 15.024C44.9439 15.44 44.6479 15.992 44.5359 16.68ZM62.1555 24.336C60.0755 24.336 58.4275 23.76 57.2115 22.608C55.9955 21.44 55.3875 19.776 55.3875 17.616V13.584C55.3875 11.424 55.9955 9.768 57.2115 8.616C58.4275 7.448 60.0755 6.864 62.1555 6.864C64.2195 6.864 65.8115 7.432 66.9315 8.568C68.0675 9.688 68.6355 11.232 68.6355 13.2V13.344H65.5155V13.104C65.5155 12.112 65.2355 11.296 64.6755 10.656C64.1315 10.016 63.2915 9.696 62.1555 9.696C61.0355 9.696 60.1555 10.04 59.5155 10.728C58.8755 11.416 58.5555 12.352 58.5555 13.536V17.664C58.5555 18.832 58.8755 19.768 59.5155 20.472C60.1555 21.16 61.0355 21.504 62.1555 21.504C63.2915 21.504 64.1315 21.184 64.6755 20.544C65.2355 19.888 65.5155 19.072 65.5155 18.096V17.664H68.6355V18C68.6355 19.968 68.0675 21.52 66.9315 22.656C65.8115 23.776 64.2195 24.336 62.1555 24.336ZM75.0088 24.336C74.1608 24.336 73.4008 24.192 72.7288 23.904C72.0568 23.6 71.5208 23.168 71.1208 22.608C70.7368 22.032 70.5448 21.336 70.5448 20.52C70.5448 19.704 70.7368 19.024 71.1208 18.48C71.5208 17.92 72.0648 17.504 72.7528 17.232C73.4568 16.944 74.2568 16.8 75.1528 16.8H78.4168V16.128C78.4168 15.568 78.2408 15.112 77.8888 14.76C77.5368 14.392 76.9768 14.208 76.2088 14.208C75.4568 14.208 74.8968 14.384 74.5288 14.736C74.1608 15.072 73.9208 15.512 73.8088 16.056L71.0248 15.12C71.2168 14.512 71.5208 13.96 71.9368 13.464C72.3688 12.952 72.9368 12.544 73.6408 12.24C74.3608 11.92 75.2328 11.76 76.2568 11.76C77.8248 11.76 79.0648 12.152 79.9768 12.936C80.8888 13.72 81.3448 14.856 81.3448 16.344V20.784C81.3448 21.264 81.5688 21.504 82.0168 21.504H82.9768V24H80.9608C80.3688 24 79.8808 23.856 79.4968 23.568C79.1128 23.28 78.9208 22.896 78.9208 22.416V22.392H78.4648C78.4008 22.584 78.2568 22.84 78.0328 23.16C77.8088 23.464 77.4568 23.736 76.9768 23.976C76.4968 24.216 75.8408 24.336 75.0088 24.336ZM75.5368 21.888C76.3848 21.888 77.0728 21.656 77.6008 21.192C78.1448 20.712 78.4168 20.08 78.4168 19.296V19.056H75.3688C74.8088 19.056 74.3688 19.176 74.0488 19.416C73.7288 19.656 73.5688 19.992 73.5688 20.424C73.5688 20.856 73.7368 21.208 74.0728 21.48C74.4088 21.752 74.8968 21.888 75.5368 21.888ZM85.1878 24V12.096H88.1638V13.44H88.5958C88.7718 12.96 89.0598 12.608 89.4598 12.384C89.8758 12.16 90.3558 12.048 90.8998 12.048H92.3398V14.736H90.8518C90.0838 14.736 89.4518 14.944 88.9558 15.36C88.4598 15.76 88.2118 16.384 88.2118 17.232V24H85.1878ZM99.0816 24.336C98.1376 24.336 97.2496 24.104 96.4176 23.64C95.6016 23.16 94.9456 22.464 94.4496 21.552C93.9536 20.64 93.7056 19.536 93.7056 18.24V17.856C93.7056 16.56 93.9536 15.456 94.4496 14.544C94.9456 13.632 95.6016 12.944 96.4176 12.48C97.2336 12 98.1216 11.76 99.0816 11.76C99.8016 11.76 100.402 11.848 100.882 12.024C101.378 12.184 101.778 12.392 102.082 12.648C102.386 12.904 102.618 13.176 102.778 13.464H103.21V7.2H106.234V24H103.258V22.56H102.826C102.554 23.008 102.13 23.416 101.554 23.784C100.994 24.152 100.17 24.336 99.0816 24.336ZM99.9936 21.696C100.922 21.696 101.698 21.4 102.322 20.808C102.946 20.2 103.258 19.32 103.258 18.168V17.928C103.258 16.776 102.946 15.904 102.322 15.312C101.714 14.704 100.938 14.4 99.9936 14.4C99.0656 14.4 98.2896 14.704 97.6656 15.312C97.0416 15.904 96.7296 16.776 96.7296 17.928V18.168C96.7296 19.32 97.0416 20.2 97.6656 20.808C98.2896 21.4 99.0656 21.696 99.9936 21.696Z" fill="#333333"/>
</svg>
