<svg width="88" height="63" viewBox="0 0 88 63" fill="none" xmlns="http://www.w3.org/2000/svg">
<ellipse cx="2.74849" cy="3.42634" rx="2.17889" ry="2.28757" transform="rotate(-0.745038 2.74849 3.42634)" fill="#2C4BFF"/>
<ellipse cx="3.24458" cy="41.5834" rx="2.17889" ry="2.28757" transform="rotate(-0.745038 3.24458 41.5834)" fill="#2C4BFF"/>
<ellipse cx="35.333" cy="3.00233" rx="2.17889" ry="2.28757" transform="rotate(-0.745038 35.333 3.00233)" fill="#2C4BFF"/>
<ellipse cx="35.8291" cy="41.1597" rx="2.17889" ry="2.28757" transform="rotate(-0.745038 35.8291 41.1597)" fill="#2C4BFF"/>
<ellipse cx="67.9179" cy="2.57856" rx="2.17889" ry="2.28757" transform="rotate(-0.745038 67.9179 2.57856)" fill="#2C4BFF"/>
<ellipse cx="68.415" cy="40.736" rx="2.17889" ry="2.28757" transform="rotate(-0.745038 68.415 40.736)" fill="#2C4BFF"/>
<ellipse cx="2.99654" cy="22.5047" rx="2.17889" ry="2.28757" transform="rotate(-0.745038 2.99654 22.5047)" fill="#2C4BFF"/>
<ellipse cx="3.49312" cy="60.6617" rx="2.17889" ry="2.28757" transform="rotate(-0.745038 3.49312 60.6617)" fill="#2C4BFF"/>
<ellipse cx="35.581" cy="22.0809" rx="2.17889" ry="2.28757" transform="rotate(-0.745038 35.581 22.0809)" fill="#2C4BFF"/>
<ellipse cx="36.0781" cy="60.238" rx="2.17889" ry="2.28757" transform="rotate(-0.745038 36.0781 60.238)" fill="#2C4BFF"/>
<ellipse cx="68.166" cy="21.6571" rx="2.17889" ry="2.28757" transform="rotate(-0.745038 68.166 21.6571)" fill="#2C4BFF"/>
<ellipse cx="68.6626" cy="59.8143" rx="2.17889" ry="2.28757" transform="rotate(-0.745038 68.6626 59.8143)" fill="#2C4BFF"/>
<ellipse cx="19.0405" cy="3.21436" rx="2.17889" ry="2.28757" transform="rotate(-0.745038 19.0405 3.21436)" fill="#2C4BFF"/>
<ellipse cx="19.5366" cy="41.3715" rx="2.17889" ry="2.28757" transform="rotate(-0.745038 19.5366 41.3715)" fill="#2C4BFF"/>
<ellipse cx="51.6254" cy="2.79047" rx="2.17889" ry="2.28757" transform="rotate(-0.745038 51.6254 2.79047)" fill="#2C4BFF"/>
<ellipse cx="52.1215" cy="40.9478" rx="2.17889" ry="2.28757" transform="rotate(-0.745038 52.1215 40.9478)" fill="#2C4BFF"/>
<ellipse cx="84.2104" cy="2.36665" rx="2.17889" ry="2.28757" transform="rotate(-0.745038 84.2104 2.36665)" fill="#2C4BFF"/>
<ellipse cx="84.707" cy="40.5241" rx="2.17889" ry="2.28757" transform="rotate(-0.745038 84.707 40.5241)" fill="#2C4BFF"/>
<ellipse cx="19.289" cy="22.2927" rx="2.17889" ry="2.28757" transform="rotate(-0.745038 19.289 22.2927)" fill="#2C4BFF"/>
<ellipse cx="19.7851" cy="60.4498" rx="2.17889" ry="2.28757" transform="rotate(-0.745038 19.7851 60.4498)" fill="#2C4BFF"/>
<ellipse cx="51.8735" cy="21.869" rx="2.17889" ry="2.28757" transform="rotate(-0.745038 51.8735 21.869)" fill="#2C4BFF"/>
<ellipse cx="52.3701" cy="60.0261" rx="2.17889" ry="2.28757" transform="rotate(-0.745038 52.3701 60.0261)" fill="#2C4BFF"/>
<ellipse cx="84.4589" cy="21.4453" rx="2.17889" ry="2.28757" transform="rotate(-0.745038 84.4589 21.4453)" fill="#2C4BFF"/>
<ellipse cx="84.9545" cy="59.6024" rx="2.17889" ry="2.28757" transform="rotate(-0.745038 84.9545 59.6024)" fill="#2C4BFF"/>
</svg>
